<?xml version="1.0" standalone="no"?>
<!DOCTYPE svg PUBLIC "-//W3C//DTD SVG 20010904//EN"
 "http://www.w3.org/TR/2001/REC-SVG-20010904/DTD/svg10.dtd">
<svg version="1.0" xmlns="http://www.w3.org/2000/svg"
 width="1366.000000pt" height="768.000000pt" viewBox="0 0 1366.000000 768.000000"
 preserveAspectRatio="xMidYMid meet">
<metadata>
Created by potrace 1.15, written by Peter Selinger 2001-2017
</metadata>
<g transform="translate(0.000000,768.000000) scale(0.100000,-0.100000)"
fill="#000000" stroke="none">
<path d="M4730 6377 c-159 -54 -284 -180 -340 -342 -20 -57 -20 -83 -20 -2196
l0 -2138 23 -64 c53 -144 140 -243 276 -310 l84 -42 1701 0 1701 0 77 37 c138
68 243 186 287 325 l22 68 -3 1786 -3 1785 -38 77 c-35 72 -58 97 -335 370
-498 491 -582 569 -647 604 -128 67 -36 63 -1444 63 l-1276 -1 -65 -22z m2680
-194 c56 -28 121 -86 470 -428 223 -218 417 -415 433 -437 15 -23 32 -58 37
-79 7 -24 9 -632 8 -1780 l-3 -1744 -26 -56 c-53 -113 -152 -182 -287 -200
-50 -6 -619 -9 -1647 -7 -1471 3 -1573 4 -1615 21 -101 39 -194 140 -220 238
-7 24 -9 792 -8 2145 l3 2109 26 56 c42 89 125 161 219 190 14 4 592 7 1285 6
l1260 -2 65 -32z"/>
<path d="M4870 5380 l0 -90 1550 0 1550 0 0 90 0 90 -1550 0 -1550 0 0 -90z"/>
<path d="M4870 4860 l0 -90 1550 0 1550 0 0 90 0 90 -1550 0 -1550 0 0 -90z"/>
<path d="M4870 4340 l0 -90 1550 0 1550 0 0 90 0 90 -1550 0 -1550 0 0 -90z"/>
<path d="M4870 3820 l0 -90 1550 0 1550 0 0 90 0 90 -1550 0 -1550 0 0 -90z"/>
<path d="M4870 3300 l0 -90 1550 0 1550 0 0 90 0 90 -1550 0 -1550 0 0 -90z"/>
<path d="M5552 2748 c-9 -9 -12 -100 -12 -350 0 -311 1 -338 18 -346 19 -10
43 -5 54 12 4 6 8 70 8 143 l0 131 143 4 c165 4 208 19 254 90 24 36 28 51 28
117 0 59 -5 84 -21 111 -23 41 -71 76 -123 90 -53 15 -334 13 -349 -2z m348
-76 c88 -43 93 -190 8 -242 -29 -17 -50 -20 -160 -20 l-128 0 0 140 0 140 123
0 c96 0 129 -4 157 -18z"/>
<path d="M6202 2748 c-9 -9 -12 -99 -12 -344 0 -280 2 -333 15 -344 11 -9 58
-11 173 -9 155 4 159 5 224 37 121 59 171 151 172 312 0 52 -5 114 -12 137
-30 103 -124 189 -234 212 -69 15 -311 14 -326 -1z m358 -82 c90 -47 130 -125
130 -255 0 -134 -40 -219 -123 -263 -35 -19 -62 -23 -169 -26 l-128 -4 0 287
0 287 128 -4 c98 -3 135 -8 162 -22z"/>
<path d="M6932 2748 c-9 -9 -12 -100 -12 -350 0 -311 1 -338 18 -346 19 -10
43 -5 54 12 4 6 8 77 8 158 l0 148 161 2 c136 3 163 6 172 19 6 9 7 24 4 33
-6 14 -28 16 -172 16 l-165 0 0 125 0 125 171 2 c145 3 173 5 182 19 6 9 7 24
4 33 -6 14 -31 16 -210 16 -144 0 -206 -3 -215 -12z"/>
</g>
</svg>
